<?xml version="1.0" standalone="no"?>
<!DOCTYPE svg PUBLIC "-//W3C//DTD SVG 20010904//EN"
 "http://www.w3.org/TR/2001/REC-SVG-20010904/DTD/svg10.dtd">
<svg version="1.0" xmlns="http://www.w3.org/2000/svg"
 width="512.000000pt" height="512.000000pt" viewBox="0 0 512.000000 512.000000"
 preserveAspectRatio="xMidYMid meet">
<metadata>
Created by potrace 1.14, written by Peter Selinger 2001-2017
</metadata>
<g transform="translate(0.000000,512.000000) scale(0.100000,-0.100000)"
fill="#000000" stroke="none">
<path d="M1150 2557 l0 -2559 73 7 c39 4 79 8 87 10 31 6 164 20 290 31 276
24 366 30 490 32 l70 2 0 1093 1 1092 105 -295 c57 -162 118 -331 133 -375 38
-103 75 -208 151 -425 33 -96 74 -211 90 -255 29 -81 144 -406 241 -680 l52
-150 36 -1 c63 -1 328 -15 358 -19 15 -1 73 -6 127 -10 55 -4 107 -8 115 -10
9 -1 48 -5 86 -9 109 -10 165 -17 235 -26 36 -6 68 -10 73 -10 4 0 7 1152 7
2560 l0 2560 -505 0 -505 0 -2 -1127 -3 -1128 -33 95 c-18 52 -46 131 -62 175
-61 170 -183 515 -371 1050 -103 289 -130 368 -154 435 -13 36 -58 162 -100
281 l-76 215 -505 0 -504 0 0 -2559z"/>
</g>
</svg>
